<?xml version="1.0" encoding="UTF-8" standalone="no"?>
<!DOCTYPE svg PUBLIC "-//W3C//DTD SVG 1.1//EN"
 "http://www.w3.org/Graphics/SVG/1.1/DTD/svg11.dtd">
<!-- Generated by graphviz version 2.43.0 (0)
 -->
<!-- Title: %3 Pages: 1 -->
<svg width="427pt" height="165pt"
 viewBox="0.00 0.00 427.00 164.74" xmlns="http://www.w3.org/2000/svg" xmlns:xlink="http://www.w3.org/1999/xlink">
<g id="graph0" class="graph" transform="scale(1 1) rotate(0) translate(36 128.74)">
<title>%3</title>
<polygon fill="dimgray" stroke="transparent" points="-36,36 -36,-128.74 391,-128.74 391,36 -36,36"/>
<text text-anchor="middle" x="177.5" y="-77.54" font-family="Helvetica,sans-Serif" font-size="14.00">Sweep&#39;s Plan &amp; Progress</text>
<!-- start -->
<g id="node1" class="node">
<title>start</title>
</g>
<!-- 6fd98664&#45;fe72&#45;46bd&#45;8894&#45;47d250fa44a0 -->
<g id="node3" class="node">
<title>6fd98664&#45;fe72&#45;46bd&#45;8894&#45;47d250fa44a0</title>
<ellipse fill="#0ee832" stroke="black" cx="174.5" cy="-26.87" rx="122.16" ry="26.74"/>
<text text-anchor="middle" x="174.5" y="-30.67" font-family="Helvetica,sans-Serif" font-size="14.00">✓ Modify</text>
<text text-anchor="middle" x="174.5" y="-15.67" font-family="Helvetica,sans-Serif" font-size="14.00">fluere&#45;config/src/init.rs</text>
</g>
<!-- start&#45;&gt;6fd98664&#45;fe72&#45;46bd&#45;8894&#45;47d250fa44a0 -->
<g id="edge1" class="edge">
<title>start&#45;&gt;6fd98664&#45;fe72&#45;46bd&#45;8894&#45;47d250fa44a0</title>
<path fill="none" stroke="black" d="M1.28,-26.87C4.89,-26.87 20.83,-26.87 41.67,-26.87"/>
<polygon fill="black" stroke="black" points="41.92,-30.37 51.92,-26.87 41.92,-23.37 41.92,-30.37"/>
<text text-anchor="middle" x="26.59" y="-33.67" font-family="Helvetica,sans-Serif" font-size="14.00">Start</text>
</g>
<!-- end -->
<g id="node2" class="node">
<title>end</title>
</g>
<!-- 6fd98664&#45;fe72&#45;46bd&#45;8894&#45;47d250fa44a0&#45;&gt;end -->
<g id="edge2" class="edge">
<title>6fd98664&#45;fe72&#45;46bd&#45;8894&#45;47d250fa44a0&#45;&gt;end</title>
<path fill="none" stroke="black" d="M297.05,-26.87C316.23,-26.87 333.13,-26.87 343.55,-26.87"/>
<polygon fill="black" stroke="black" points="343.84,-30.37 353.84,-26.87 343.84,-23.37 343.84,-30.37"/>
<text text-anchor="middle" x="325.41" y="-33.67" font-family="Helvetica,sans-Serif" font-size="14.00">Finish</text>
</g>
</g>
</svg>
